# xmcd CD database file
#
# Track frame offsets:
#	183
#	18263
#	36593
#	50875
#	69685
#	82390
#	96463
#	118328
#	134115
#	156533
#	174978
#	193660
#	215055
#	231273
#	250883
#
# Disc length: 3598 seconds
#
# Revision: 0
# Processed by: cddbd v1.5.1PL2 Copyright (c) Steve Scherf et al.
# Submitted via: CDex 1.51
#
DISCID=f70e0c0f
DTITLE=Harvey Wallbanger Trio f. Regi Sager - Piano Bar
DYEAR=1991
DGENRE=Jazz
TTITLE0=In a mellow tone
TTITLE1=Honeysuckle rose
TTITLE2=Autumn leaves
TTITLE3=Stormy water
TTITLE4=On the sunny side of the street
TTITLE5=I can't give you anything but love
TTITLE6=Good morning heartache
TTITLE7=Mood indigo
TTITLE8=The man I love
TTITLE9=Love for sale
TTITLE10=A foggy day
TTITLE11=Gee baby, ain't I'm good to you
TTITLE12=Night train
TTITLE13=They can't take that away from me
TTITLE14=As time goes by
EXTD=YEAR: 1991
EXTT0=
EXTT1=
EXTT2=
EXTT3=
EXTT4=
EXTT5=
EXTT6=
EXTT7=
EXTT8=
EXTT9=
EXTT10=
EXTT11=
EXTT12=
EXTT13=
EXTT14=
PLAYORDER=
